<svg width="113" height="32" viewBox="0 0 113 32" fill="none" xmlns="http://www.w3.org/2000/svg">
<path d="M108 0H31V32H108C110.761 32 113 29.7614 113 27V5C113 2.23858 110.761 0 108 0Z" fill="#0F1418"/>
<path d="M31 0H5C2.23858 0 0 2.23858 0 5V27C0 29.7614 2.23858 32 5 32H31V0Z" fill="#1977F3"/>
<path d="M21.1474 17.9581L21.8205 13.467H17.6068V10.5531C17.6068 9.32547 18.1944 8.12626 20.0833 8.12626H22V4.30363C22 4.30363 20.2607 4 18.5983 4C15.1282 4 12.859 6.14941 12.859 10.0441V13.467H9V17.9581H12.859V28.8121C13.6325 28.9367 14.4252 29 15.2329 29C16.0406 29 16.8333 28.9345 17.6068 28.8121V17.9581H21.1474Z" fill="#FEFEFE"/>
<path d="M45.2518 13.4233H41.5458V16.0015H44.9515V17.9204H41.5458V22H39.1801V11.4971H45.2518V13.4233ZM52.7268 22H50.5368V20.9233H50.5075C50.0046 21.7632 49.26 22.1831 48.2736 22.1831C47.5461 22.1831 46.9724 21.978 46.5524 21.5679C46.1374 21.1528 45.9299 20.6011 45.9299 19.9126C45.9299 18.4575 46.7917 17.6177 48.5153 17.3931L50.5515 17.1221C50.5515 16.3018 50.1071 15.8916 49.2185 15.8916C48.3249 15.8916 47.4753 16.1577 46.6696 16.6899V14.9468C46.9919 14.7808 47.4313 14.6343 47.988 14.5073C48.5495 14.3804 49.0598 14.3169 49.5187 14.3169C51.6574 14.3169 52.7268 15.3838 52.7268 17.5176V22ZM50.5515 18.9531V18.4478L49.1892 18.6235C48.4372 18.7212 48.0612 19.0605 48.0612 19.6416C48.0612 19.9053 48.1516 20.1226 48.3322 20.2935C48.5178 20.4595 48.7668 20.5425 49.0793 20.5425C49.5139 20.5425 49.8679 20.3936 50.1413 20.0957C50.4147 19.793 50.5515 19.4121 50.5515 18.9531ZM60.4214 21.729C59.8989 22.0317 59.1446 22.1831 58.1582 22.1831C57.0059 22.1831 56.0733 21.834 55.3604 21.1357C54.6475 20.4375 54.291 19.5366 54.291 18.4331C54.291 17.1587 54.6719 16.1553 55.4336 15.4229C56.2002 14.6855 57.2232 14.3169 58.5025 14.3169C59.3862 14.3169 60.0259 14.4341 60.4214 14.6685V16.6313C59.938 16.27 59.3985 16.0894 58.8028 16.0894C58.1387 16.0894 57.6113 16.2847 57.2207 16.6753C56.835 17.061 56.6421 17.5957 56.6421 18.2793C56.6421 18.9434 56.8277 19.4658 57.1987 19.8467C57.5698 20.2227 58.0801 20.4106 58.7295 20.4106C59.3057 20.4106 59.8696 20.23 60.4214 19.8687V21.729ZM68.8631 18.9092H63.9705C64.0487 19.998 64.7347 20.5425 66.0287 20.5425C66.8538 20.5425 67.5789 20.3472 68.2039 19.9565V21.6265C67.5106 21.9976 66.6097 22.1831 65.5013 22.1831C64.2904 22.1831 63.3504 21.8486 62.6815 21.1797C62.0125 20.5059 61.6781 19.5684 61.6781 18.3672C61.6781 17.1221 62.0394 16.1357 62.7621 15.4082C63.4847 14.6807 64.3734 14.3169 65.4281 14.3169C66.5218 14.3169 67.3665 14.6416 67.9622 15.291C68.5628 15.9404 68.8631 16.8218 68.8631 17.9351V18.9092ZM66.7171 17.4883C66.7171 16.4141 66.2826 15.877 65.4134 15.877C65.0423 15.877 64.7201 16.0308 64.4466 16.3384C64.1781 16.646 64.0145 17.0293 63.9559 17.4883H66.7171ZM72.7638 21.1284H72.7345V22H70.4201V10.8965H72.7345V15.6279H72.7638C73.3351 14.7539 74.1481 14.3169 75.2028 14.3169C76.1696 14.3169 76.9142 14.6489 77.4367 15.313C77.9591 15.9771 78.2204 16.8853 78.2204 18.0376C78.2204 19.2876 77.9152 20.291 77.3048 21.0479C76.6945 21.8047 75.8791 22.1831 74.8586 22.1831C73.9357 22.1831 73.2375 21.8315 72.7638 21.1284ZM72.6979 17.9644V18.7334C72.6979 19.2168 72.8371 19.6172 73.1154 19.9346C73.3937 20.252 73.7502 20.4106 74.1847 20.4106C74.7121 20.4106 75.1198 20.208 75.4079 19.8027C75.7008 19.3926 75.8473 18.814 75.8473 18.0669C75.8473 17.4468 75.713 16.9634 75.4445 16.6167C75.1808 16.2651 74.8024 16.0894 74.3092 16.0894C73.8454 16.0894 73.4596 16.2627 73.152 16.6094C72.8493 16.9561 72.6979 17.4077 72.6979 17.9644ZM83.4761 22.1831C82.2261 22.1831 81.2422 21.834 80.5244 21.1357C79.8115 20.4326 79.4551 19.4805 79.4551 18.2793C79.4551 17.0391 79.8262 16.0698 80.5683 15.3716C81.3105 14.6685 82.3139 14.3169 83.5786 14.3169C84.8237 14.3169 85.8003 14.6685 86.5083 15.3716C87.2163 16.0698 87.5703 16.9951 87.5703 18.1475C87.5703 19.3926 87.2041 20.3765 86.4717 21.0991C85.7441 21.8218 84.7456 22.1831 83.4761 22.1831ZM83.5346 16.0894C82.9878 16.0894 82.563 16.2773 82.2602 16.6533C81.9575 17.0293 81.8061 17.5615 81.8061 18.25C81.8061 19.6904 82.3872 20.4106 83.5493 20.4106C84.6577 20.4106 85.2119 19.6709 85.2119 18.1914C85.2119 16.79 84.6528 16.0894 83.5346 16.0894ZM92.826 22.1831C91.576 22.1831 90.5921 21.834 89.8743 21.1357C89.1614 20.4326 88.805 19.4805 88.805 18.2793C88.805 17.0391 89.1761 16.0698 89.9183 15.3716C90.6604 14.6685 91.6639 14.3169 92.9285 14.3169C94.1736 14.3169 95.1502 14.6685 95.8582 15.3716C96.5662 16.0698 96.9202 16.9951 96.9202 18.1475C96.9202 19.3926 96.554 20.3765 95.8216 21.0991C95.094 21.8218 94.0955 22.1831 92.826 22.1831ZM92.8846 16.0894C92.3377 16.0894 91.9129 16.2773 91.6102 16.6533C91.3074 17.0293 91.1561 17.5615 91.1561 18.25C91.1561 19.6904 91.7371 20.4106 92.8992 20.4106C94.0076 20.4106 94.5618 19.6709 94.5618 18.1914C94.5618 16.79 94.0027 16.0894 92.8846 16.0894ZM106.116 22H103.34L100.945 18.2793H100.916V22H98.6017V10.8965H100.916V17.9644H100.945L103.179 14.5H105.926L103.238 18.0229L106.116 22Z" fill="white"/>
<path d="M108 0H5C2.23858 0 0 2.23858 0 5V27C0 29.7614 2.23858 32 5 32H108C110.761 32 113 29.7614 113 27V5C113 2.23858 110.761 0 108 0Z" fill="url(#paint0_linear_26_15)"/>
<defs>
<linearGradient id="paint0_linear_26_15" x1="0" y1="0" x2="0" y2="32" gradientUnits="userSpaceOnUse">
<stop stop-color="#BBBBBB" stop-opacity="0.1"/>
<stop offset="1" stop-opacity="0.1"/>
</linearGradient>
</defs>
</svg>
